<svg xmlns="http://www.w3.org/2000/svg" viewBox="0 0 90.82 15.99"><defs><style>.cls-1{fill:#1e7abf;}.cls-1,.cls-2{fill-rule:evenodd;}.cls-2,.cls-3{fill:#454545;}</style></defs><g id="Layer_2" data-name="Layer 2"><g id="Layer_1-2" data-name="Layer 1"><polygon class="cls-1" points="15.18 10.68 10.52 2.35 8.1 2.35 3.38 10.79 3.38 2.35 0 2.35 0 13.64 2.59 13.64 5.24 13.64 9.31 6.36 13.37 13.61 13.38 13.64 15.24 13.64 16.89 13.64 18.62 10.85 18.62 5.14 15.18 10.68"/><path class="cls-2" d="M15.18,5.88v4.8l3.44-5.54h6.53a1.58,1.58,0,0,1,1.57,1.58V9.28a1.57,1.57,0,0,1-1.57,1.57H18.62l-1.73,2.79h9.74a3.5,3.5,0,0,0,3.49-3.49V5.84a3.5,3.5,0,0,0-3.49-3.49H15.18Z"/><polygon class="cls-1" points="13.2 2.35 15.18 5.88 15.18 2.35 13.2 2.35"/><rect class="cls-3" x="33.86" width="0.8" height="15.99"/><path class="cls-2" d="M38.41,8.12h4.15A7.39,7.39,0,0,0,44.92,8c.51-.17.73-.6.73-1.42s-.24-1.26-1-1.39c.58-.17.78-.5.78-1.33,0-1-.31-1.41-1.25-1.47-.26,0-.26,0-1.63,0H38.41V8.12Zm1.67-3.5V3.71h2.47l.92,0c.18,0,.26.18.26.42s-.06.35-.19.41a3.54,3.54,0,0,1-1,.06Zm0,2.12v-1h2.48a7.11,7.11,0,0,1,1.11,0c.2,0,.27.17.27.43s-.06.38-.2.44-.13.06-1.18.07Zm6.15-4.39V5c0,.94,0,.94,0,1.13,0,.85.14,1.2.43,1.5.43.45,1.12.58,3.33.58a12.75,12.75,0,0,0,2.44-.14,1.44,1.44,0,0,0,1.19-1.26A14.44,14.44,0,0,0,53.72,5V2.35H52V5c0,.13,0,.4,0,.6,0,.55-.06.7-.2.85s-.56.26-1.77.26c-1.49,0-1.83-.1-1.93-.55A6.72,6.72,0,0,1,48,5V2.35Zm8.28,0V8.12h1.84V2.35Zm2.65,0V8.12H63.1V6.65H59V2.35Zm6.35,5.77h4.16c2,0,2.46-.09,2.9-.49s.55-1,.55-2.48A5.26,5.26,0,0,0,71,3.44a1.37,1.37,0,0,0-1.13-1,9.26,9.26,0,0,0-2.16-.11H63.51V8.12Zm1.73-1.47V3.79h2.43c1.07,0,1.31,0,1.49.25s.23.51.23,1.22c0,1.3-.11,1.39-1.7,1.39Zm6.58-4.3V8.12h1.84V2.35Zm2.65,0V8.12h1.79l0-4.31h.19l3,4.31h3V2.35H80.71l0,4.3h-.18l-3-4.3ZM86.8,4.85V6h2.31v.16c0,.64,0,.66-2.1.66l-1,0c-.5,0-.65,0-.8-.16s-.24-.45-.24-1.43c0-1.49,0-1.5,2.08-1.5,1.32,0,1.72,0,1.9.15s.13.15.14.49h1.75c0-.85-.08-1.21-.32-1.49-.38-.46-1.17-.6-3.32-.6-3.74,0-4,.18-4,2.88,0,1.9.1,2.32.61,2.66s1.1.41,3.08.41a13.53,13.53,0,0,0,2.76-.16,1.27,1.27,0,0,0,1.13-1.21c0-.28.06-1.26.06-1.84V4.85Z"/><path class="cls-2" d="M45.33,13.64H48c1.25,0,1.59-.06,1.87-.32s.36-.63.36-1.6a3.19,3.19,0,0,0-.11-1.11.88.88,0,0,0-.73-.63A5.61,5.61,0,0,0,48,9.91H45.33v3.73Zm1.11-1V10.84H48c.69,0,.84,0,1,.16s.15.33.15.79c0,.84-.07.9-1.1.9ZM53,9.91v3.73h4.15v-.9h-3v-.59H57v-.82H54.14v-.55h3V9.91Zm6.7,2.49v.18c0,.51.08.73.34.89a3.88,3.88,0,0,0,1.87.22,7.07,7.07,0,0,0,1.81-.11c.39-.14.54-.46.54-1.11s-.09-.77-.35-.94-.48-.18-1.71-.22a7.84,7.84,0,0,1-1.2-.07c-.12,0-.17-.1-.17-.24s.08-.29,1-.29c.8,0,.94,0,1,.06s.1.1.11.31h1.09a1.31,1.31,0,0,0,0-.17c0-.44-.09-.68-.31-.83s-.66-.23-1.74-.23a10.14,10.14,0,0,0-1.63.07c-.52.11-.72.43-.72,1.14s.26,1.06,1.18,1.08h.31l.6,0,.89,0c.37,0,.45.06.45.28s0,.33-1.22.33c-.8,0-.92,0-1-.08s-.11-.13-.11-.35ZM67,9.91v3.73h1.19V9.91Zm6.31,1.61v.75h1.49v.1c0,.42,0,.43-1.36.43H72.8c-.32,0-.42,0-.52-.11s-.16-.29-.16-.92c0-1,0-1,1.35-1a3.17,3.17,0,0,1,1.23.1c.07.06.08.1.09.32h1.13c0-.55,0-.78-.2-1s-.77-.39-2.15-.39C71.15,9.85,71,10,71,11.71c0,1.23.06,1.5.39,1.72s.71.26,2,.26a8.7,8.7,0,0,0,1.79-.1.82.82,0,0,0,.73-.78c0-.18,0-.82,0-1.19v-.1Zm5.38-1.61v3.73h1.16l0-2.79H80l2,2.79h2V9.91H82.74l0,2.78h-.12l-2-2.78Z"/></g></g></svg>