<svg xmlns="http://www.w3.org/2000/svg" viewBox="0 0 71.91 36.15"><defs><style>.cls-1{fill:#1e7abf;}.cls-1,.cls-2{fill-rule:evenodd;}.cls-2{fill:#e2e2e1;}</style></defs><g id="Layer_2" data-name="Layer 2"><g id="Layer_1-2" data-name="Layer 1"><polygon class="cls-1" points="36.13 11.43 29.73 0 26.41 0 19.93 11.58 19.93 0 15.29 0 15.29 15.49 18.85 15.49 22.48 15.49 28.07 5.5 33.63 15.45 33.66 15.49 36.21 15.49 38.47 15.49 40.84 11.67 40.84 3.83 36.13 11.43"/><path class="cls-2" d="M36.13,4.85v6.58l4.71-7.6h9A2.16,2.16,0,0,1,52,6V9.51a2.16,2.16,0,0,1-2.16,2.16h-9l-2.37,3.82H51.83a4.8,4.8,0,0,0,4.79-4.79V4.79A4.8,4.8,0,0,0,51.83,0H36.13Z"/><polygon class="cls-1" points="33.41 0 36.13 4.85 36.13 0 33.41 0"/><path class="cls-2" d="M0,28.5H5.7c2.66,0,2.79,0,3.24-.17.7-.24,1-.82,1-1.95s-.32-1.73-1.36-1.91c.79-.23,1.07-.69,1.07-1.82,0-1.43-.43-1.93-1.72-2-.36,0-.36,0-2.23,0H0V28.5Zm2.29-4.79V22.45h3.4a6.9,6.9,0,0,1,1.25,0c.25.06.36.23.36.57s-.08.48-.26.55a4,4,0,0,1-1.35.1Zm0,2.9V25.29H5.7a13.16,13.16,0,0,1,1.52,0c.27.06.38.23.38.6s-.09.51-.29.59-.18.08-1.61.1Zm8.44-6v3.64c0,1.28,0,1.28,0,1.54.06,1.17.19,1.65.58,2.06.6.63,1.55.79,4.57.79a16.5,16.5,0,0,0,3.35-.19,2,2,0,0,0,1.64-1.72A19.85,19.85,0,0,0,21,24.23V20.59H18.6v3.64c0,.17,0,.55,0,.82,0,.75-.09,1-.28,1.16s-.76.36-2.42.36c-2,0-2.52-.13-2.65-.76a7.76,7.76,0,0,1-.08-1.58V20.59Zm11.36,0V28.5h2.53V20.59Zm3.64,0V28.5h8.16v-2H28.26v-5.9Zm8.71,7.91h5.71c2.67,0,3.37-.11,4-.66s.76-1.34.76-3.41a7.1,7.1,0,0,0-.23-2.35,1.9,1.9,0,0,0-1.54-1.34,12.66,12.66,0,0,0-3-.15H34.44V28.5Zm2.38-2V22.57h3.33c1.47,0,1.79.05,2,.33s.32.7.32,1.68c0,1.79-.15,1.91-2.33,1.91Zm9-5.9V28.5h2.53V20.59Zm3.64,0V28.5h2.46l-.06-5.91h.26l4.17,5.91H60.5V20.59H58l.06,5.9h-.25l-4.14-5.9ZM66.39,24V25.6h3.17v.22c0,.88-.07.9-2.88.9l-1.41,0c-.68,0-.89-.06-1.1-.23s-.33-.61-.33-1.95c0-2.06,0-2.07,2.86-2.07,1.81,0,2.36.05,2.6.21s.18.21.19.67H71.9c0-1.16-.11-1.65-.44-2-.52-.63-1.61-.82-4.56-.82-5.12,0-5.47.25-5.47,4,0,2.6.13,3.18.83,3.64s1.51.56,4.23.56a18.39,18.39,0,0,0,3.79-.21,1.75,1.75,0,0,0,1.55-1.66c0-.38.08-1.74.08-2.52V24Z"/><path class="cls-2" d="M9.49,36.07h3.69c1.73,0,2.18-.07,2.58-.42s.49-.87.49-2.21a4.5,4.5,0,0,0-.15-1.52,1.22,1.22,0,0,0-1-.86,7.51,7.51,0,0,0-1.92-.1H9.49v5.11ZM11,34.77V32.24h2.15c1,0,1.16,0,1.32.21s.21.46.21,1.08c0,1.16-.1,1.24-1.51,1.24Zm9-3.81v5.11h5.69V34.85H21.59V34h3.92V32.91H21.59v-.75h4.13V31Zm9.19,3.42v.24c0,.71.12,1,.47,1.23a5.41,5.41,0,0,0,2.57.3A9.71,9.71,0,0,0,34.77,36c.53-.2.75-.64.75-1.53,0-.71-.13-1.06-.49-1.29s-.66-.24-2.34-.3A12,12,0,0,1,31,32.79a.29.29,0,0,1-.23-.33c0-.38.11-.41,1.43-.41,1.11,0,1.3,0,1.43.1s.14.13.15.42h1.51v-.24c0-.61-.12-.93-.43-1.14s-.89-.31-2.38-.31a15.59,15.59,0,0,0-2.24.09c-.7.15-1,.59-1,1.57S29.65,34,30.92,34h.41l.83,0,1.23.05c.5,0,.62.08.62.39s0,.45-1.68.45c-1.1,0-1.26,0-1.41-.11s-.15-.17-.15-.48Zm10-3.42v5.11h1.63V31Zm8.65,2.21v1H50v.15c0,.57-.05.58-1.86.58h-.92c-.44,0-.57,0-.7-.15s-.22-.4-.22-1.26c0-1.33,0-1.34,1.85-1.34,1.17,0,1.53,0,1.68.14s.12.13.12.43h1.56c0-.75-.07-1.07-.28-1.32-.34-.41-1-.53-2.95-.53-3.31,0-3.54.16-3.54,2.55,0,1.69.09,2.06.54,2.36s1,.36,2.73.36A11.75,11.75,0,0,0,50.42,36a1.13,1.13,0,0,0,1-1.07c0-.25,0-1.12,0-1.63v-.14ZM55.3,31v5.11h1.59l0-3.82H57l2.69,3.82h2.71V31H60.83l0,3.81h-.16L58,31Z"/></g></g></svg>